<svg width="178" height="37" viewBox="0 0 178 37" fill="none" xmlns="http://www.w3.org/2000/svg">
<path d="M31.1473 13.6477L31.1255 13.626C31.1238 13.6247 31.1224 13.6231 31.1215 13.6212L17.5006 0L3.87983 13.6209C3.87826 13.6225 3.8758 13.6256 3.8758 13.6256L3.85333 13.6474C1.77053 15.7419 0.447586 18.4725 0.0948175 21.4052C-0.25795 24.3379 0.379698 27.3044 1.90639 29.8331C3.43309 32.3619 5.76122 34.3077 8.52069 35.3612C11.2802 36.4147 14.3126 36.5157 17.136 35.6477C17.3735 35.5751 17.6275 35.5751 17.8651 35.6477C20.6882 36.5153 23.7205 36.4144 26.4798 35.3607C29.2391 34.307 31.567 32.3613 33.0936 29.8328C34.6202 27.3042 35.2579 24.3379 34.9053 21.4054C34.5526 18.4728 33.2299 15.7422 31.1473 13.6477ZM8.7232 22.6298C8.65689 22.6961 8.6043 22.7749 8.56844 22.8615C8.53257 22.948 8.5141 23.0408 8.51412 23.1346C8.53835 25.5386 9.21776 27.8904 10.4792 29.9371C10.5079 29.9835 10.5211 30.0379 10.517 30.0922C10.513 30.1465 10.4918 30.1982 10.4566 30.2399C10.4213 30.2816 10.3738 30.311 10.3209 30.324C10.2679 30.337 10.2122 30.333 10.1616 30.3124C9.21332 29.9135 8.35182 29.3336 7.62531 28.6053C6.13646 27.1162 5.29946 25.097 5.2981 22.9912C5.29675 20.8855 6.13117 18.8652 7.61812 17.3743L17.5006 7.49273L27.3826 17.3743C28.8698 18.865 29.7045 20.8853 29.703 22.9912C29.7018 25.097 28.8647 27.1162 27.3757 28.6053C26.6492 29.3336 25.7877 29.9135 24.8396 30.3124C24.7889 30.333 24.7332 30.337 24.6802 30.324C24.6273 30.311 24.5798 30.2814 24.5445 30.2399C24.5093 30.1982 24.488 30.1465 24.484 30.092C24.4799 30.0377 24.4931 29.9833 24.5218 29.9369C25.7835 27.8904 26.4633 25.5386 26.4879 23.1346C26.4879 23.0408 26.4692 22.948 26.4332 22.8613C26.3971 22.7746 26.3444 22.696 26.2779 22.6296L21.6037 17.6717C21.5571 17.6329 21.4985 17.6116 21.4378 17.6116C21.3773 17.6116 21.3186 17.6329 21.2721 17.6717C21.2255 17.7104 21.1942 17.7644 21.1833 17.824C21.1724 17.8837 21.1828 17.945 21.2127 17.9978C23.0281 21.283 21.467 26.0017 18.8637 28.6053L18.85 28.6191C18.4907 28.9745 18.0056 29.1738 17.5002 29.1736C16.9948 29.1734 16.5098 28.9738 16.1508 28.6182L16.1382 28.6053C13.5339 26.0017 11.9736 21.2835 13.7893 17.9985C13.8192 17.9457 13.8296 17.8844 13.8187 17.8247C13.8079 17.7651 13.7764 17.7111 13.7299 17.6724C13.6834 17.6336 13.6247 17.6123 13.5642 17.6123C13.5036 17.6123 13.4449 17.6336 13.3984 17.6724L8.7232 22.6298Z" fill="#F53838"/>
<path d="M50.4923 24.7391C50.3516 24.7391 50.2344 24.6913 50.1407 24.5957C50.0469 24.4841 50 24.3645 50 24.237C50 24.1572 50.0078 24.0855 50.0234 24.0217L55.6027 8.64565C55.6496 8.47029 55.7433 8.31884 55.884 8.1913C56.0246 8.06377 56.22 8 56.47 8H59.4706C59.7207 8 59.916 8.06377 60.0567 8.1913C60.1973 8.31884 60.2911 8.47029 60.338 8.64565L65.9172 24.0217C65.9328 24.0855 65.9406 24.1572 65.9406 24.237C65.9406 24.3645 65.8938 24.4841 65.8 24.5957C65.7062 24.6913 65.589 24.7391 65.4484 24.7391H63.0104C62.776 24.7391 62.604 24.6833 62.4946 24.5717C62.3853 24.4601 62.3149 24.3565 62.2837 24.2609L61.2757 21.5826H54.665L53.657 24.2609C53.6257 24.3565 53.5554 24.4601 53.446 24.5717C53.3366 24.6833 53.1647 24.7391 52.9303 24.7391H50.4923ZM55.5323 18.4978H60.3849L57.9703 11.6109L55.5323 18.4978Z" fill="#0B132A"/>
<path d="M68.2638 24.7391C68.1075 24.7391 67.9747 24.6833 67.8653 24.5717C67.7559 24.4601 67.7012 24.3167 67.7012 24.1413V12.9022C67.7012 12.7428 67.7559 12.6072 67.8653 12.4957C67.9747 12.3681 68.1075 12.3043 68.2638 12.3043H70.5611C70.7174 12.3043 70.8502 12.3681 70.9596 12.4957C71.0847 12.6072 71.1472 12.7428 71.1472 12.9022V13.8587C71.5379 13.3645 72.0145 12.9819 72.5771 12.7109C73.1554 12.4399 73.8196 12.3043 74.5697 12.3043H75.5777C75.734 12.3043 75.8669 12.3601 75.9762 12.4717C76.0856 12.5833 76.1403 12.7268 76.1403 12.9022V14.9587C76.1403 15.1341 76.0856 15.2775 75.9762 15.3891C75.8669 15.5007 75.734 15.5565 75.5777 15.5565H73.5148C72.8272 15.5565 72.288 15.7558 71.8973 16.1543C71.5066 16.537 71.3113 17.087 71.3113 17.8043V24.1413C71.3113 24.3167 71.2566 24.4601 71.1472 24.5717C71.0378 24.6833 70.8971 24.7391 70.7252 24.7391H68.2638Z" fill="#0B132A"/>
<path d="M81.269 24.9783C80.4408 24.9783 79.6984 24.8188 79.042 24.5C78.3857 24.1652 77.8621 23.7188 77.4714 23.1609C77.0807 22.6029 76.8854 21.9812 76.8854 21.2957C76.8854 20.1638 77.3308 19.271 78.2216 18.6174C79.128 17.9638 80.3157 17.5174 81.7848 17.2783L84.8557 16.8239V16.3935C84.8557 15.7717 84.715 15.2935 84.4337 14.9587C84.1524 14.6239 83.6601 14.4565 82.9569 14.4565C82.4411 14.4565 82.027 14.5601 81.7144 14.7674C81.4019 14.9746 81.1596 15.2457 80.9877 15.5804C80.8627 15.7877 80.683 15.8913 80.4486 15.8913H78.2216C78.0497 15.8913 77.9168 15.8435 77.823 15.7478C77.7293 15.6362 77.6902 15.5087 77.7058 15.3652C77.7058 15.0942 77.8074 14.7754 78.0106 14.4087C78.2137 14.042 78.5263 13.6833 78.9483 13.3326C79.3702 12.9659 79.9094 12.663 80.5658 12.4239C81.2222 12.1848 82.027 12.0652 82.9803 12.0652C83.9649 12.0652 84.8088 12.1848 85.5121 12.4239C86.2153 12.663 86.7779 12.9978 87.1999 13.4283C87.6219 13.8587 87.9344 14.3609 88.1376 14.9348C88.3407 15.4928 88.4423 16.0985 88.4423 16.7522V24.1413C88.4423 24.3167 88.3876 24.4601 88.2782 24.5717C88.1688 24.6833 88.0282 24.7391 87.8563 24.7391H85.5589C85.4027 24.7391 85.2698 24.6833 85.1604 24.5717C85.051 24.4601 84.9963 24.3167 84.9963 24.1413V23.2565C84.7932 23.5594 84.5197 23.8464 84.1759 24.1174C83.832 24.3725 83.4179 24.5797 82.9334 24.7391C82.4646 24.8986 81.9098 24.9783 81.269 24.9783ZM82.2067 22.4913C82.7224 22.4913 83.1835 22.3797 83.5898 22.1565C83.9961 21.9333 84.3165 21.5906 84.5509 21.1283C84.7854 20.6659 84.9026 20.0841 84.9026 19.3826V18.9761L82.7225 19.3348C81.8785 19.4783 81.2612 19.6935 80.8705 19.9804C80.4798 20.2674 80.2845 20.6181 80.2845 21.0326C80.2845 21.3355 80.3704 21.5986 80.5423 21.8217C80.7299 22.0449 80.9721 22.2123 81.269 22.3239C81.566 22.4355 81.8785 22.4913 82.2067 22.4913Z" fill="#0B132A"/>
<path d="M97.0005 30C95.8441 30 94.8829 29.8406 94.1172 29.5217C93.3514 29.2188 92.7419 28.8442 92.2887 28.3978C91.8511 27.9674 91.5385 27.537 91.351 27.1065C91.1634 26.6761 91.0619 26.3413 91.0462 26.1022C91.0306 25.9268 91.0853 25.7833 91.2103 25.6717C91.3354 25.5601 91.476 25.5043 91.6323 25.5043H94.1406C94.2812 25.5043 94.3985 25.5362 94.4922 25.6C94.6016 25.6797 94.6876 25.8072 94.7501 25.9826C94.8282 26.1739 94.9376 26.3732 95.0783 26.5804C95.2189 26.8036 95.4299 26.987 95.7112 27.1304C96.0081 27.2739 96.3989 27.3457 96.8833 27.3457C97.4303 27.3457 97.8835 27.2659 98.243 27.1065C98.6024 26.9471 98.8681 26.6761 99.04 26.2935C99.2275 25.9109 99.3213 25.3928 99.3213 24.7391V23.137C98.9462 23.5514 98.4696 23.8942 97.8913 24.1652C97.3287 24.4362 96.6333 24.5717 95.805 24.5717C94.9923 24.5717 94.2734 24.4442 93.6483 24.1891C93.0388 23.9181 92.5309 23.5435 92.1246 23.0652C91.7182 22.571 91.4057 21.9812 91.1869 21.2957C90.9681 20.6101 90.8431 19.837 90.8118 18.9761C90.7962 18.5457 90.7962 18.1232 90.8118 17.7087C90.8431 16.8797 90.9681 16.1225 91.1869 15.437C91.4057 14.7514 91.7182 14.1616 92.1246 13.6674C92.5309 13.1572 93.0388 12.7667 93.6483 12.4957C94.2734 12.2087 94.9923 12.0652 95.805 12.0652C96.6645 12.0652 97.399 12.2326 98.0085 12.5674C98.618 12.9022 99.1181 13.3167 99.5088 13.8109V12.9022C99.5088 12.7428 99.5635 12.6072 99.6729 12.4957C99.7823 12.3681 99.9152 12.3043 100.071 12.3043H102.369C102.525 12.3043 102.658 12.3681 102.767 12.4957C102.892 12.6072 102.955 12.7428 102.955 12.9022L102.978 24.4043C102.978 25.6 102.752 26.6123 102.298 27.4413C101.845 28.2703 101.173 28.9 100.282 29.3304C99.4073 29.7768 98.3133 30 97.0005 30ZM96.8833 21.7739C97.4459 21.7739 97.8991 21.6464 98.243 21.3913C98.6024 21.1203 98.8681 20.7855 99.04 20.387C99.2119 19.9725 99.3057 19.542 99.3213 19.0957C99.3369 18.9203 99.3447 18.6732 99.3447 18.3543C99.3447 18.0196 99.3369 17.7645 99.3213 17.5891C99.3057 17.1428 99.2119 16.7203 99.04 16.3217C98.8681 15.9072 98.6024 15.5725 98.243 15.3174C97.8991 15.0623 97.4459 14.9348 96.8833 14.9348C96.2895 14.9348 95.8206 15.0703 95.4768 15.3413C95.133 15.5964 94.8829 15.9391 94.7266 16.3696C94.5704 16.8 94.4766 17.2703 94.4453 17.7804C94.4297 18.163 94.4297 18.5377 94.4453 18.9043C94.4766 19.4304 94.5704 19.9087 94.7266 20.3391C94.8829 20.7696 95.133 21.1203 95.4768 21.3913C95.8206 21.6464 96.2895 21.7739 96.8833 21.7739Z" fill="#0B132A"/>
<path d="M111.511 24.9783C110.214 24.9783 109.128 24.763 108.253 24.3326C107.378 23.8862 106.706 23.2565 106.237 22.4435C105.784 21.6304 105.533 20.6819 105.487 19.5978C105.471 19.279 105.463 18.9203 105.463 18.5217C105.463 18.1072 105.471 17.7485 105.487 17.4457C105.533 16.3457 105.799 15.3971 106.284 14.6C106.768 13.787 107.448 13.1652 108.323 12.7348C109.198 12.2884 110.261 12.0652 111.511 12.0652C112.746 12.0652 113.801 12.2884 114.676 12.7348C115.551 13.1652 116.231 13.787 116.715 14.6C117.2 15.3971 117.466 16.3457 117.512 17.4457C117.544 17.7485 117.559 18.1072 117.559 18.5217C117.559 18.9203 117.544 19.279 117.512 19.5978C117.466 20.6819 117.208 21.6304 116.739 22.4435C116.286 23.2565 115.621 23.8862 114.746 24.3326C113.871 24.763 112.793 24.9783 111.511 24.9783ZM111.511 22.3478C112.277 22.3478 112.855 22.1087 113.246 21.6304C113.637 21.1362 113.848 20.4188 113.879 19.4783C113.894 19.2391 113.902 18.9203 113.902 18.5217C113.902 18.1232 113.894 17.8043 113.879 17.5652C113.848 16.6406 113.637 15.9312 113.246 15.437C112.855 14.9428 112.277 14.6957 111.511 14.6957C110.745 14.6957 110.159 14.9428 109.753 15.437C109.362 15.9312 109.151 16.6406 109.12 17.5652C109.104 17.8043 109.097 18.1232 109.097 18.5217C109.097 18.9203 109.104 19.2391 109.12 19.4783C109.151 20.4188 109.362 21.1362 109.753 21.6304C110.159 22.1087 110.745 22.3478 111.511 22.3478Z" fill="#0B132A"/>
<path d="M120.574 24.7391C120.417 24.7391 120.284 24.6833 120.175 24.5717C120.066 24.4601 120.011 24.3167 120.011 24.1413V12.9022C120.011 12.7268 120.066 12.5833 120.175 12.4717C120.284 12.3601 120.417 12.3043 120.574 12.3043H122.871C123.043 12.3043 123.183 12.3601 123.293 12.4717C123.402 12.5833 123.457 12.7268 123.457 12.9022V13.8348C123.863 13.3246 124.387 12.9022 125.028 12.5674C125.668 12.2326 126.45 12.0652 127.372 12.0652C128.294 12.0652 129.099 12.2804 129.786 12.7109C130.49 13.1254 131.037 13.7391 131.427 14.5522C131.834 15.3493 132.037 16.3217 132.037 17.4696V24.1413C132.037 24.3167 131.974 24.4601 131.849 24.5717C131.74 24.6833 131.607 24.7391 131.451 24.7391H128.966C128.794 24.7391 128.653 24.6833 128.544 24.5717C128.435 24.4601 128.38 24.3167 128.38 24.1413V17.613C128.38 16.7681 128.177 16.1145 127.77 15.6522C127.38 15.1739 126.801 14.9348 126.036 14.9348C125.301 14.9348 124.715 15.1739 124.277 15.6522C123.84 16.1145 123.621 16.7681 123.621 17.613V24.1413C123.621 24.3167 123.566 24.4601 123.457 24.5717C123.348 24.6833 123.215 24.7391 123.058 24.7391H120.574Z" fill="#0B132A"/>
<path d="M140.284 24.7391C140.05 24.7391 139.862 24.6833 139.721 24.5717C139.596 24.4601 139.495 24.3087 139.417 24.1174L134.189 8.7413C134.158 8.64565 134.142 8.55797 134.142 8.47826C134.142 8.35073 134.189 8.23913 134.283 8.14348C134.377 8.04783 134.486 8 134.611 8H135.83C136.018 8 136.158 8.0558 136.252 8.16739C136.361 8.26304 136.424 8.35073 136.44 8.43044L141.034 21.9891L145.629 8.43044C145.66 8.35073 145.723 8.26304 145.816 8.16739C145.91 8.0558 146.051 8 146.238 8H147.457C147.582 8 147.692 8.04783 147.785 8.14348C147.895 8.23913 147.95 8.35073 147.95 8.47826C147.95 8.55797 147.934 8.64565 147.903 8.7413L142.652 24.1174C142.589 24.3087 142.488 24.4601 142.347 24.5717C142.222 24.6833 142.042 24.7391 141.808 24.7391H140.284Z" fill="#0B132A"/>
<path d="M151.285 24.7391C151.113 24.7391 150.981 24.6913 150.887 24.5957C150.793 24.4841 150.746 24.3485 150.746 24.1891V8.57391C150.746 8.39855 150.793 8.26304 150.887 8.16739C150.981 8.0558 151.113 8 151.285 8H157.24C158.396 8 159.396 8.1913 160.24 8.57391C161.1 8.95652 161.764 9.53044 162.233 10.2957C162.702 11.0449 162.936 11.9855 162.936 13.1174C162.936 14.2493 162.702 15.1899 162.233 15.9391C161.764 16.6884 161.1 17.2543 160.24 17.637C159.396 18.0196 158.396 18.2109 157.24 18.2109H153.09V24.1891C153.09 24.3485 153.036 24.4841 152.926 24.5957C152.833 24.6913 152.7 24.7391 152.528 24.7391H151.285ZM153.067 16.2022H157.122C158.279 16.2022 159.146 15.9391 159.724 15.413C160.303 14.887 160.592 14.1217 160.592 13.1174C160.592 12.129 160.311 11.3638 159.748 10.8217C159.185 10.2797 158.31 10.0087 157.122 10.0087H153.067V16.2022Z" fill="#0B132A"/>
<path d="M166.326 24.7391C166.154 24.7391 166.021 24.6913 165.927 24.5957C165.834 24.4841 165.787 24.3485 165.787 24.1891V8.57391C165.787 8.39855 165.834 8.26304 165.927 8.16739C166.021 8.0558 166.154 8 166.326 8H167.404C167.592 8 167.732 8.04783 167.826 8.14348C167.92 8.22319 167.975 8.28696 167.99 8.33478L175.773 20.5304V8.57391C175.773 8.39855 175.82 8.26304 175.914 8.16739C176.007 8.0558 176.14 8 176.312 8H177.437C177.609 8 177.742 8.0558 177.836 8.16739C177.945 8.26304 178 8.39855 178 8.57391V24.1652C178 24.3246 177.945 24.4601 177.836 24.5717C177.742 24.6833 177.617 24.7391 177.461 24.7391H176.336C176.164 24.7391 176.031 24.6913 175.937 24.5957C175.859 24.5 175.804 24.4362 175.773 24.4043L168.014 12.3283V24.1891C168.014 24.3485 167.959 24.4841 167.85 24.5957C167.756 24.6913 167.623 24.7391 167.451 24.7391H166.326Z" fill="#0B132A"/>
</svg>
