<svg width="151" height="37" viewBox="0 0 151 37" fill="none" xmlns="http://www.w3.org/2000/svg">
<path d="M31.1473 13.6477L31.1255 13.626C31.1238 13.6247 31.1224 13.6231 31.1215 13.6212L17.5006 0L3.87983 13.6209C3.87826 13.6225 3.8758 13.6256 3.8758 13.6256L3.85333 13.6474C1.77053 15.7419 0.447586 18.4725 0.0948175 21.4052C-0.25795 24.3379 0.379698 27.3044 1.90639 29.8331C3.43309 32.3619 5.76122 34.3077 8.52069 35.3612C11.2802 36.4147 14.3126 36.5157 17.136 35.6477C17.3735 35.5751 17.6275 35.5751 17.8651 35.6477C20.6882 36.5153 23.7205 36.4144 26.4798 35.3607C29.2391 34.307 31.567 32.3613 33.0936 29.8328C34.6202 27.3042 35.2579 24.3379 34.9053 21.4054C34.5526 18.4728 33.2299 15.7422 31.1473 13.6477ZM8.7232 22.6298C8.65689 22.6961 8.6043 22.7749 8.56844 22.8615C8.53257 22.948 8.5141 23.0408 8.51412 23.1346C8.53835 25.5386 9.21776 27.8904 10.4792 29.9371C10.5079 29.9835 10.5211 30.0379 10.517 30.0922C10.513 30.1465 10.4918 30.1982 10.4566 30.2399C10.4213 30.2816 10.3738 30.311 10.3209 30.324C10.2679 30.337 10.2122 30.333 10.1616 30.3124C9.21332 29.9135 8.35182 29.3336 7.62531 28.6053C6.13646 27.1162 5.29946 25.097 5.2981 22.9912C5.29675 20.8855 6.13117 18.8652 7.61812 17.3743L17.5006 7.49273L27.3826 17.3743C28.8698 18.865 29.7045 20.8853 29.703 22.9912C29.7018 25.097 28.8647 27.1162 27.3757 28.6053C26.6492 29.3336 25.7877 29.9135 24.8396 30.3124C24.7889 30.333 24.7332 30.337 24.6802 30.324C24.6273 30.311 24.5798 30.2814 24.5445 30.2399C24.5093 30.1982 24.488 30.1465 24.484 30.092C24.4799 30.0377 24.4931 29.9833 24.5218 29.9369C25.7835 27.8904 26.4633 25.5386 26.4879 23.1346C26.4879 23.0408 26.4692 22.948 26.4332 22.8613C26.3971 22.7746 26.3444 22.696 26.2779 22.6296L21.6037 17.6717C21.5571 17.6329 21.4985 17.6116 21.4378 17.6116C21.3773 17.6116 21.3186 17.6329 21.2721 17.6717C21.2255 17.7104 21.1942 17.7644 21.1833 17.824C21.1724 17.8837 21.1828 17.945 21.2127 17.9978C23.0281 21.283 21.467 26.0017 18.8637 28.6053L18.85 28.6191C18.4907 28.9745 18.0056 29.1738 17.5002 29.1736C16.9948 29.1734 16.5098 28.9738 16.1508 28.6182L16.1382 28.6053C13.5339 26.0017 11.9736 21.2835 13.7893 17.9985C13.8192 17.9457 13.8296 17.8844 13.8187 17.8247C13.8079 17.7651 13.7764 17.7111 13.7299 17.6724C13.6834 17.6336 13.6247 17.6123 13.5642 17.6123C13.5036 17.6123 13.4449 17.6336 13.3984 17.6724L8.7232 22.6298Z" fill="#F53838"/>
<path d="M43.726 23.4C43.594 23.4 43.484 23.356 43.396 23.268C43.308 23.1653 43.264 23.0553 43.264 22.938C43.264 22.8647 43.2713 22.7987 43.286 22.74L48.522 8.594C48.566 8.43267 48.654 8.29333 48.786 8.176C48.918 8.05867 49.1013 8 49.336 8H52.152C52.3866 8 52.57 8.05867 52.702 8.176C52.834 8.29333 52.922 8.43267 52.966 8.594L58.202 22.74C58.2166 22.7987 58.224 22.8647 58.224 22.938C58.224 23.0553 58.18 23.1653 58.092 23.268C58.004 23.356 57.894 23.4 57.762 23.4H55.474C55.254 23.4 55.0926 23.3487 54.99 23.246C54.8873 23.1433 54.8213 23.048 54.792 22.96L53.846 20.496H47.642L46.696 22.96C46.6666 23.048 46.6006 23.1433 46.498 23.246C46.3953 23.3487 46.234 23.4 46.014 23.4H43.726ZM48.456 17.658H53.01L50.744 11.322L48.456 17.658Z" fill="#0B132A"/>
<path d="M60.4042 23.4C60.2575 23.4 60.1329 23.3487 60.0302 23.246C59.9275 23.1433 59.8762 23.0113 59.8762 22.85V12.51C59.8762 12.3633 59.9275 12.2387 60.0302 12.136C60.1329 12.0187 60.2575 11.96 60.4042 11.96H62.5602C62.7069 11.96 62.8315 12.0187 62.9342 12.136C63.0515 12.2387 63.1102 12.3633 63.1102 12.51V13.39C63.4769 12.9353 63.9242 12.5833 64.4522 12.334C64.9949 12.0847 65.6182 11.96 66.3222 11.96H67.2682C67.4149 11.96 67.5395 12.0113 67.6422 12.114C67.7449 12.2167 67.7962 12.3487 67.7962 12.51V14.402C67.7962 14.5633 67.7449 14.6953 67.6422 14.798C67.5395 14.9007 67.4149 14.952 67.2682 14.952H65.3322C64.6869 14.952 64.1809 15.1353 63.8142 15.502C63.4475 15.854 63.2642 16.36 63.2642 17.02V22.85C63.2642 23.0113 63.2129 23.1433 63.1102 23.246C63.0075 23.3487 62.8755 23.4 62.7142 23.4H60.4042Z" fill="#0B132A"/>
<path d="M74.6759 28.24C73.5905 28.24 72.6885 28.0933 71.9699 27.8C71.2512 27.5213 70.6792 27.1767 70.2539 26.766C69.8432 26.37 69.5499 25.974 69.3739 25.578C69.1979 25.182 69.1025 24.874 69.0879 24.654C69.0732 24.4927 69.1245 24.3607 69.2419 24.258C69.3592 24.1553 69.4912 24.104 69.6379 24.104H71.9919C72.1239 24.104 72.2339 24.1333 72.3219 24.192C72.4245 24.2653 72.5052 24.3827 72.5639 24.544C72.6372 24.72 72.7399 24.9033 72.8719 25.094C73.0039 25.2993 73.2019 25.468 73.4659 25.6C73.7445 25.732 74.1112 25.798 74.5659 25.798C75.0792 25.798 75.5045 25.7247 75.8419 25.578C76.1792 25.4313 76.4285 25.182 76.5899 24.83C76.7659 24.478 76.8539 24.0013 76.8539 23.4V21.926C76.5019 22.3073 76.0545 22.6227 75.5119 22.872C74.9839 23.1213 74.3312 23.246 73.5539 23.246C72.7912 23.246 72.1165 23.1287 71.5299 22.894C70.9579 22.6447 70.4812 22.3 70.0999 21.86C69.7185 21.4053 69.4252 20.8627 69.2199 20.232C69.0145 19.6013 68.8972 18.89 68.8679 18.098C68.8532 17.702 68.8532 17.3133 68.8679 16.932C68.8972 16.1693 69.0145 15.4727 69.2199 14.842C69.4252 14.2113 69.7185 13.6687 70.0999 13.214C70.4812 12.7447 70.9579 12.3853 71.5299 12.136C72.1165 11.872 72.7912 11.74 73.5539 11.74C74.3605 11.74 75.0499 11.894 75.6219 12.202C76.1939 12.51 76.6632 12.8913 77.0299 13.346V12.51C77.0299 12.3633 77.0812 12.2387 77.1839 12.136C77.2865 12.0187 77.4112 11.96 77.5579 11.96H79.7139C79.8605 11.96 79.9852 12.0187 80.0879 12.136C80.2052 12.2387 80.2639 12.3633 80.2639 12.51L80.2859 23.092C80.2859 24.192 80.0732 25.1233 79.6479 25.886C79.2225 26.6487 78.5919 27.228 77.7559 27.624C76.9345 28.0347 75.9079 28.24 74.6759 28.24ZM74.5659 20.672C75.0939 20.672 75.5192 20.5547 75.8419 20.32C76.1792 20.0707 76.4285 19.7627 76.5899 19.396C76.7512 19.0147 76.8392 18.6187 76.8539 18.208C76.8685 18.0467 76.8759 17.8193 76.8759 17.526C76.8759 17.218 76.8685 16.9833 76.8539 16.822C76.8392 16.4113 76.7512 16.0227 76.5899 15.656C76.4285 15.2747 76.1792 14.9667 75.8419 14.732C75.5192 14.4973 75.0939 14.38 74.5659 14.38C74.0085 14.38 73.5685 14.5047 73.2459 14.754C72.9232 14.9887 72.6885 15.304 72.5419 15.7C72.3952 16.096 72.3072 16.5287 72.2779 16.998C72.2632 17.35 72.2632 17.6947 72.2779 18.032C72.3072 18.516 72.3952 18.956 72.5419 19.352C72.6885 19.748 72.9232 20.0707 73.2459 20.32C73.5685 20.5547 74.0085 20.672 74.5659 20.672Z" fill="#0B132A"/>
<path d="M88.2939 23.62C87.0765 23.62 86.0572 23.422 85.2359 23.026C84.4145 22.6153 83.7839 22.036 83.3439 21.288C82.9185 20.54 82.6839 19.6673 82.6399 18.67C82.6252 18.3767 82.6179 18.0467 82.6179 17.68C82.6179 17.2987 82.6252 16.9687 82.6399 16.69C82.6839 15.678 82.9332 14.8053 83.3879 14.072C83.8425 13.324 84.4805 12.752 85.3019 12.356C86.1232 11.9453 87.1205 11.74 88.2939 11.74C89.4525 11.74 90.4425 11.9453 91.2639 12.356C92.0852 12.752 92.7232 13.324 93.1779 14.072C93.6325 14.8053 93.8819 15.678 93.9259 16.69C93.9552 16.9687 93.9699 17.2987 93.9699 17.68C93.9699 18.0467 93.9552 18.3767 93.9259 18.67C93.8819 19.6673 93.6399 20.54 93.1999 21.288C92.7745 22.036 92.1512 22.6153 91.3299 23.026C90.5085 23.422 89.4965 23.62 88.2939 23.62ZM88.2939 21.2C89.0125 21.2 89.5552 20.98 89.9219 20.54C90.2885 20.0853 90.4865 19.4253 90.5159 18.56C90.5305 18.34 90.5379 18.0467 90.5379 17.68C90.5379 17.3133 90.5305 17.02 90.5159 16.8C90.4865 15.9493 90.2885 15.2967 89.9219 14.842C89.5552 14.3873 89.0125 14.16 88.2939 14.16C87.5752 14.16 87.0252 14.3873 86.6439 14.842C86.2772 15.2967 86.0792 15.9493 86.0499 16.8C86.0352 17.02 86.0279 17.3133 86.0279 17.68C86.0279 18.0467 86.0352 18.34 86.0499 18.56C86.0792 19.4253 86.2772 20.0853 86.6439 20.54C87.0252 20.98 87.5752 21.2 88.2939 21.2Z" fill="#0B132A"/>
<path d="M96.7987 23.4C96.6521 23.4 96.5274 23.3487 96.4247 23.246C96.3221 23.1433 96.2707 23.0113 96.2707 22.85V12.51C96.2707 12.3487 96.3221 12.2167 96.4247 12.114C96.5274 12.0113 96.6521 11.96 96.7987 11.96H98.9547C99.1161 11.96 99.2481 12.0113 99.3507 12.114C99.4534 12.2167 99.5047 12.3487 99.5047 12.51V13.368C99.8861 12.8987 100.377 12.51 100.979 12.202C101.58 11.894 102.313 11.74 103.179 11.74C104.044 11.74 104.799 11.938 105.445 12.334C106.105 12.7153 106.618 13.28 106.985 14.028C107.366 14.7613 107.557 15.656 107.557 16.712V22.85C107.557 23.0113 107.498 23.1433 107.381 23.246C107.278 23.3487 107.153 23.4 107.007 23.4H104.675C104.513 23.4 104.381 23.3487 104.279 23.246C104.176 23.1433 104.125 23.0113 104.125 22.85V16.844C104.125 16.0667 103.934 15.4653 103.553 15.04C103.186 14.6 102.643 14.38 101.925 14.38C101.235 14.38 100.685 14.6 100.275 15.04C99.8641 15.4653 99.6587 16.0667 99.6587 16.844V22.85C99.6587 23.0113 99.6074 23.1433 99.5047 23.246C99.4021 23.3487 99.2774 23.4 99.1307 23.4H96.7987Z" fill="#0B132A"/>
<path d="M115.297 23.4C115.077 23.4 114.901 23.3487 114.769 23.246C114.651 23.1433 114.556 23.004 114.483 22.828L109.577 8.682C109.547 8.594 109.533 8.51333 109.533 8.44C109.533 8.32267 109.577 8.22 109.665 8.132C109.753 8.044 109.855 8 109.973 8H111.117C111.293 8 111.425 8.05133 111.513 8.154C111.615 8.242 111.674 8.32267 111.689 8.396L116.001 20.87L120.313 8.396C120.342 8.32267 120.401 8.242 120.489 8.154C120.577 8.05133 120.709 8 120.885 8H122.029C122.146 8 122.249 8.044 122.337 8.132C122.439 8.22 122.491 8.32267 122.491 8.44C122.491 8.51333 122.476 8.594 122.447 8.682L117.519 22.828C117.46 23.004 117.365 23.1433 117.233 23.246C117.115 23.3487 116.947 23.4 116.727 23.4H115.297Z" fill="#0B132A"/>
<path d="M125.621 23.4C125.46 23.4 125.335 23.356 125.247 23.268C125.159 23.1653 125.115 23.0407 125.115 22.894V8.528C125.115 8.36667 125.159 8.242 125.247 8.154C125.335 8.05133 125.46 8 125.621 8H131.209C132.294 8 133.233 8.176 134.025 8.528C134.832 8.88 135.455 9.408 135.895 10.112C136.335 10.8013 136.555 11.6667 136.555 12.708C136.555 13.7493 136.335 14.6147 135.895 15.304C135.455 15.9933 134.832 16.514 134.025 16.866C133.233 17.218 132.294 17.394 131.209 17.394H127.315V22.894C127.315 23.0407 127.264 23.1653 127.161 23.268C127.073 23.356 126.948 23.4 126.787 23.4H125.621ZM127.293 15.546H131.099C132.184 15.546 132.998 15.304 133.541 14.82C134.084 14.336 134.355 13.632 134.355 12.708C134.355 11.7987 134.091 11.0947 133.563 10.596C133.035 10.0973 132.214 9.848 131.099 9.848H127.293V15.546Z" fill="#0B132A"/>
<path d="M139.736 23.4C139.575 23.4 139.45 23.356 139.362 23.268C139.274 23.1653 139.23 23.0407 139.23 22.894V8.528C139.23 8.36667 139.274 8.242 139.362 8.154C139.45 8.05133 139.575 8 139.736 8H140.748C140.924 8 141.056 8.044 141.144 8.132C141.232 8.20533 141.284 8.264 141.298 8.308L148.602 19.528V8.528C148.602 8.36667 148.646 8.242 148.734 8.154C148.822 8.05133 148.947 8 149.108 8H150.164C150.326 8 150.45 8.05133 150.538 8.154C150.641 8.242 150.692 8.36667 150.692 8.528V22.872C150.692 23.0187 150.641 23.1433 150.538 23.246C150.45 23.3487 150.333 23.4 150.186 23.4H149.13C148.969 23.4 148.844 23.356 148.756 23.268C148.683 23.18 148.632 23.1213 148.602 23.092L141.32 11.982V22.894C141.32 23.0407 141.269 23.1653 141.166 23.268C141.078 23.356 140.954 23.4 140.792 23.4H139.736Z" fill="#0B132A"/>
</svg>
