<?xml version="1.0" encoding="UTF-8"?>
<svg id="uuid-47ead85e-382f-4dba-b121-fde29dc9425d" data-name="Layer 2" xmlns="http://www.w3.org/2000/svg" width="563.788" height="674.875" viewBox="0 0 563.788 674.875">
  <defs>
    <style>
      .uuid-59c58651-6eb3-4de7-b101-33e09f3f048f {
        fill: #fff;
      }

      .uuid-8c9170cc-473e-4a7b-a845-f102c97cf949 {
        fill: #84c907;
      }
    </style>
  </defs>
  <g id="uuid-7486b81f-3587-422e-b441-56322e28fd67" data-name="Layer 1">
    <g>
      <path class="uuid-8c9170cc-473e-4a7b-a845-f102c97cf949" d="m284.172,44.088c89.29,0,164.678,62.324,185.532,145.502H98.639c20.615-83.178,96.242-145.502,185.533-145.502h0Z"/>
      <path class="uuid-8c9170cc-473e-4a7b-a845-f102c97cf949" d="m245.699,524.219v115.538c0,19.176-15.941,35.117-35.117,35.117-19.416,0-35.117-15.94-35.117-35.117v-115.538h-66.518c-8.749,0-15.94-7.071-15.94-15.941V221.71c0-4.674.24-9.349.479-13.783h381.133c.479,4.435.479,9.109.479,13.783v286.568c0,8.869-7.071,15.941-15.701,15.941h-66.518v115.538c0,19.176-15.701,35.117-35.117,35.117-19.296,0-35.117-15.94-35.117-35.117v-115.538h-76.946Z"/>
      <path class="uuid-59c58651-6eb3-4de7-b101-33e09f3f048f" d="m204.23,132.899c11.506,0,20.615-9.349,20.615-20.615,0-11.506-9.109-20.615-20.615-20.615-11.146,0-20.615,9.109-20.615,20.615,0,11.266,9.468,20.615,20.615,20.615h0Z"/>
      <path class="uuid-59c58651-6eb3-4de7-b101-33e09f3f048f" d="m364.114,132.899c11.146,0,20.615-9.349,20.615-20.615,0-11.506-9.468-20.615-20.615-20.615-11.506,0-20.615,9.109-20.615,20.615,0,11.266,9.109,20.615,20.615,20.615h0Z"/>
      <path class="uuid-8c9170cc-473e-4a7b-a845-f102c97cf949" d="m197.997,70.096c-1.798,0-3.596-.959-4.555-2.517L159.045,7.773c-1.438-2.517-.599-5.633,1.918-7.071,2.397-1.438,5.633-.599,7.071,1.918l34.398,59.687c1.438,2.517.599,5.633-1.918,7.071-.839.479-1.678.719-2.517.719h0Z"/>
      <path class="uuid-8c9170cc-473e-4a7b-a845-f102c97cf949" d="m365.432,70.096c-.839,0-1.798-.24-2.517-.719-2.517-1.438-3.356-4.554-1.918-7.071L395.635,2.619c1.438-2.517,4.674-3.356,7.071-1.918,2.517,1.438,3.356,4.554,1.918,7.071l-34.638,59.807c-.959,1.558-2.757,2.517-4.555,2.517h0Z"/>
      <path class="uuid-8c9170cc-473e-4a7b-a845-f102c97cf949" d="m35.117,193.665c19.416,0,35.117,15.941,35.117,35.117v170.791c0,19.416-15.701,35.117-35.117,35.117S0,418.988,0,399.572v-170.791c0-19.176,15.701-35.117,35.117-35.117h0Z"/>
      <path class="uuid-8c9170cc-473e-4a7b-a845-f102c97cf949" d="m528.672,193.665c19.416,0,35.117,15.941,35.117,35.117v170.791c0,19.416-15.701,35.117-35.117,35.117-19.536,0-35.237-15.701-35.237-35.117v-170.791c0-19.176,15.701-35.117,35.237-35.117h0Z"/>
    </g>
  </g>
</svg>