<?xml version="1.0" encoding="UTF-8"?>
<svg id="uuid-2773541f-8d1b-4a41-b9c9-d2993ebb6823" data-name="Layer 2" xmlns="http://www.w3.org/2000/svg" width="548.193" height="662.663" viewBox="0 0 548.193 662.663">
  <defs>
    <style>
      .uuid-63a42f9b-80e0-4025-bf80-ab376ea8d52d {
        fill-rule: evenodd;
      }
    </style>
  </defs>
  <g id="uuid-aa51ef2d-2d68-48f8-b10a-b39faa3f21d9" data-name="Layer 1">
    <path class="uuid-63a42f9b-80e0-4025-bf80-ab376ea8d52d" d="m269.415,148.498c86.893,2.996,139.988-61.605,141.786-148.498-92.407,0-149.457,47.462-141.786,148.498h0Zm278.778,330.674c-38.593-35.357-82.579-45.784-85.096-129.561-1.319-44.945,11.026-68.556,25.888-86.534,14.742-17.978,31.881-30.083,39.911-52.016-102.834-127.883-208.305-23.971-271.827-38.713-16.54-3.955-29.484-10.427-44.945-16.18-18.577-6.832-35.476-8.03-55.132-6.712-194.162,12.824-203.391,297.355-54.413,470.423,71.193,82.818,98.28,20.735,176.064,16.06,75.268-4.554,113.381,64.361,185.293-5.274,26.008-25.169,76.107-100.796,84.257-151.494h0Z"/>
  </g>
</svg>